<?xml version="1.0" encoding="utf-8"?>
<!-- Generator: Adobe Illustrator 22.0.1, SVG Export Plug-In . SVG Version: 6.00 Build 0)  -->
<svg version="1.1" id="Warstwa_1" xmlns="http://www.w3.org/2000/svg" xmlns:xlink="http://www.w3.org/1999/xlink" x="0px" y="0px"
	 viewBox="0 0 612 792" style="enable-background:new 0 0 612 792;" xml:space="preserve">
<style type="text/css">
	.st0{fill:#231F20;}
	.st1{font-family:'FiraSans-MediumItalic';}
	.st2{font-size:12px;}
</style>
<path class="st0" d="M269.2,360.1c-2.9-0.4-5.7-0.5-8.5-0.4c-5.2,0.2-10.2,1.3-14.6,4.3c-3.7,2.5-7.7,2.8-11.8,2.3
	c-4.4-0.5-8.7-1.3-13-1.9c-2.3-0.3-4.6-0.3-6.9,0.2c-3.4,0.7-5.8,2.7-7.3,5.9c-1.1,2.4-1.6,4.9-1.8,7.5c-0.7,11,2.5,21,7.4,30.6
	c3.4,6.6,7.2,12.9,10.7,19.4c1.7,3.1,3.2,6.3,4.3,9.7c0.2,0.8,0.1,1-0.7,0.9c-0.3,0-0.6,0-0.8,0c-3.8,0.6-6.5-1.3-8.7-4.1
	c-3.7-4.8-6.6-10.1-9.2-15.5c-5.4-11.1-9.7-22.7-12.8-34.6c-0.9-3.2-1.5-6.5-1.9-9.9c-0.5-4.4,0.7-8.2,3-11.8
	c3-4.9,7.8-6.9,13.2-7.7c4.7-0.6,9.3,0.3,13.9,1.3c8.1,1.8,16.2,1.6,24.2-0.6c2.8-0.8,5.8-1.3,8.7-1.5c5-0.3,9.2,1,12.4,5.2
	c0.1,0.2,0.2,0.3,0.3,0.5C269.2,359.8,269.2,360,269.2,360.1z"/>
<g>
	<path class="st0" d="M309.4,394.2c-0.1-2.4-1.3-3.9-3.6-4.5c-2.8-0.7-5.4-0.2-7.7,1.6c-0.6,0.4-0.9,0.5-1.3-0.1
		c-0.5-0.8-1.4-1.2-2.3-1.5c-2.4-0.7-4.7-0.2-7,1.3c0.1-1-0.5-1.2-1.2-1.2c-1.7,0-3.4,0-5.2,0c-0.7,0-1,0.2-1.2,1
		c-0.9,5.2-1.8,10.5-2.8,15.7c-0.2,1,0.1,1.4,1.2,1.4c1.8,0,3.7,0,5.5,0c0.8,0,1.1-0.3,1.3-1.1c0.3-2.2,0.8-4.4,1.2-6.6
		c0.2-1.1,0.4-2.3,0.9-3.3c0.4-0.8,1.2-1.1,2-0.9c0.9,0.2,0.6,1,0.6,1.6c0,0.3-0.1,0.6-0.1,0.8c-0.5,2.7-0.9,5.4-1.4,8.1
		c-0.2,0.9,0.1,1.3,1,1.3c2,0,3.9,0,5.9,0c0.7,0,1-0.3,1.1-1c0.2-1,0.3-2.1,0.5-3.1c0.4-2.2,0.6-4.5,1.3-6.7c0.4-1,1.2-1.4,2.2-1.2
		c1.1,0.3,0.7,1.2,0.6,1.9c-0.5,2.8-1,5.7-1.5,8.5c-0.2,1.3,0,1.5,1.2,1.5c1.8,0,3.7,0,5.5,0c0.7,0,1.1-0.2,1.2-1
		c0.4-2.6,0.9-5.3,1.4-7.9C309.3,397.4,309.5,395.8,309.4,394.2z"/>
	<path class="st0" d="M239.4,384.3c-4.9-2.1-9.6-1.7-14,1.1c-2.5,1.6-3.6,4.2-3.6,7.2c0,3.1,2.1,4.6,4.7,5.5
		c1.8,0.6,3.7,1.1,5.5,1.7c0.5,0.2,1.4,0.2,1.3,1c-0.1,0.8-0.8,0.9-1.5,1c-0.2,0-0.3,0.1-0.5,0.1c-1.7,0.2-2.4-0.3-3-1.9
		c-0.2-0.6-0.6-0.5-1.1-0.5c-1,0-2.1,0-3.1,0c0,0,0,0,0,0c-1,0-2,0.1-3,0c-1.2-0.1-1.4,0.4-1.4,1.5c0,3,1.8,5.7,5,6.8
		c4.9,1.6,9.6,1,14-1.9c2-1.4,3.1-3.5,3.4-5.8c0.4-3.3-0.7-5.2-3.7-6.6c-1.6-0.7-3.3-1.1-5-1.5c-0.7-0.2-1.5-0.4-2.1-0.8
		c-0.4-0.2-0.7-0.6-0.3-1.1c0.8-0.9,3.4-0.3,3.7,0.8c0.2,0.6,0.4,0.8,1,0.8c2.2,0,4.4,0,6.6,0c0.6,0,0.9-0.2,0.9-0.8
		C243.3,388.2,241.9,385.3,239.4,384.3z"/>
	<path class="st0" d="M418.6,389.9c-1.6,0-3.1,0-4.7,0c-0.8,0-1.4,0.2-1.6,1c-3-2.2-5.9-1.8-8.8-0.2c-3.5,2-4.7,5.3-5.1,9
		c-0.4,3.7,1.9,6.8,5.6,7.3c1.7,0.2,3.3-0.1,5-0.8c-0.2,1.3-0.6,1.9-1.4,2.2c-0.8,0.2-1.6,0.4-2.1-0.7c-0.2-0.4-0.6-0.3-1-0.3
		c-1.9,0-3.8,0-5.6,0c-1.1,0-1.3,0.5-1.2,1.4c0.3,1.7,1.2,2.9,2.8,3.6c2.4,1,4.9,1.2,7.5,1c4.9-0.3,7.8-2.6,8.8-7.3
		c1-5,1.8-10.1,2.7-15.1C419.8,390.2,419.5,389.8,418.6,389.9z M409.9,400.2c-0.6,0.9-1.9,1.3-2.7,0.8c-0.9-0.5-0.9-1.3-0.6-2.2
		c0.2-0.7,0.4-1.4,0.7-2c0.4-1.1,1.3-1.4,2.3-1.2c1.1,0.2,1.2,1,1.2,1.9C410.7,398.4,410.5,399.4,409.9,400.2z"/>
	<path class="st0" d="M325.8,389.7c-3-0.5-6-0.4-8.9,0.5c-2.5,0.7-4.6,2.1-5.3,4.9c-0.3,1.1,0,1.4,1.1,1.4c1.5,0,3,0,4.5,0
		c0,0.1,0,0.1,0,0.2c-0.9,0.2-1.7,0.3-2.6,0.5c-1.4,0.3-2.7,0.9-3.8,2c-1.6,1.7-2.2,3.8-1.6,6.1c0.6,2.1,2.4,2.8,4.3,3.1
		c2,0.4,4-0.1,5.9-0.8c0.6-0.2,1.3-1.1,1.8,0.2c0.1,0.3,0.5,0.2,0.8,0.2c2,0,4.1,0,6.1,0c0.9,0,1.4-0.7,0.9-1.4
		c-0.5-0.7-0.4-1.3-0.3-2c0.5-2.8,1-5.7,1.5-8.5C330.8,392.3,329.4,390.3,325.8,389.7z M318.5,403.3c-0.4-0.1-0.9-0.1-1-0.6
		c-0.1-0.5,0.2-0.8,0.7-1c0.6-0.3,2.2-0.6,3-0.6C320.7,402.6,319.6,403.5,318.5,403.3z M321.5,395.9c-0.8,0.2-1.6,0.3-2.6,0.5
		c0.4-1.4,1.3-1.7,2.4-1.7c0.4,0,0.8,0,0.9,0.4C322.4,395.7,321.9,395.8,321.5,395.9z"/>
	<path class="st0" d="M341.6,395.9c0.1-0.7,0.4-0.9,1.1-0.9c2.3,0,2.3-0.1,2.7-2.4c0-0.2,0-0.4,0.1-0.6c0.4-1.7,0.8-2.4-1.8-2.2
		c-0.8,0.1-1-0.2-0.8-1c0.2-1,0.4-2,0.6-2.9c0.2-0.8-0.1-1.3-1-1.3c-0.9,0-1.8,0-2.8,0c-0.8,0-1.7,0.1-2.5,0
		c-1.1-0.1-1.6,0.4-1.7,1.4c-0.1,0.9-0.4,1.8-0.5,2.7c-0.1,0.9-0.5,1.2-1.3,1c-1.1-0.2-1.6,0.4-1.7,1.5c-0.1,0.8-0.2,1.7-0.4,2.5
		c-0.2,0.9,0.1,1.3,1,1.2c1-0.1,1,0.3,0.9,1.1c-0.4,2.5-0.9,5-1.2,7.5c-0.3,2.5,0.6,3.7,3,4.2c2.2,0.5,4.4,0.1,6.6,0.1
		c0.5,0,0.7-0.4,0.8-0.8c0.2-1.3,0.4-2.7,0.7-4c0.2-0.9-0.2-1.3-1.1-1.2c-0.2,0-0.5,0-0.7,0c-0.8,0-1.1-0.3-0.9-1.2
		C341.1,399.1,341.4,397.5,341.6,395.9z"/>
	<path class="st0" d="M253.3,395.8c0.1-0.5,0.3-0.7,0.9-0.8c2.5-0.2,2.5-0.2,3-2.8c0.1-0.4,0.1-0.7,0.2-1.1c0.3-1-0.1-1.5-1.1-1.4
		c-0.2,0-0.3,0-0.5,0c-1.2,0.2-1.3-0.4-1.1-1.4c0.2-0.8,0.3-1.7,0.5-2.6c0.2-0.9-0.1-1.3-1-1.3c-1.9,0-3.8,0-5.6,0
		c-0.8,0-1.1,0.4-1.3,1.1c-0.2,1.1-0.4,2.2-0.6,3.3c-0.1,0.5-0.2,0.8-0.8,0.8c-1.9,0.2-1.9,0.2-2.2,2c-0.1,0.7-0.2,1.3-0.4,2
		c-0.1,0.8,0.2,1.2,0.9,1.1c1-0.1,1.3,0.3,1,1.2c-0.1,0.4-0.1,0.8-0.2,1.2c-0.3,2-0.7,4.1-1,6.1c-0.3,2.4,0.7,3.7,3,4.2
		c1.2,0.3,2.5,0.3,3.7,0.1c0.9,0,1.8,0,2.8,0c0.6,0,0.9-0.3,1-0.8c0.3-1.4,0.5-2.8,0.7-4.2c0.1-0.6-0.2-1-0.8-1c-0.4,0-0.8,0-1.2,0
		c-0.8,0-0.9-0.4-0.8-1.1C252.7,399.1,253,397.5,253.3,395.8z"/>
	<path class="st0" d="M362.1,390.5c-1.6-0.7-3.2-1.1-4.7-1c-6.3,0-10.6,3.4-11.9,9.1c-1,4.2,0.5,7.5,4.1,9
		c6.4,2.7,16.6-0.7,16.3-11.1C366,393.7,364.7,391.7,362.1,390.5z M357,401.4c-0.6,1-1.9,1.5-2.8,1.1c-1-0.5-0.9-1.4-0.8-2.3
		c0.1-0.9,0.4-1.9,0.7-2.8c0.1-0.4,0.3-0.8,0.5-1.1c0.6-0.9,1.4-1.3,2.4-1c1.2,0.4,0.9,1.5,1,2.2C358,399,357.7,400.2,357,401.4z"/>
	<path class="st0" d="M376.6,383.6c-1.7,0-3.4,0-5,0c-0.9,0-1.3,0.3-1.4,1.2c-0.4,2.5-0.8,5-1.3,7.4c-0.8,4.7-1.7,9.4-2.5,14.2
		c-0.2,1.3,0,1.5,1.2,1.5c0.8,0,1.7,0,2.5,0c0.9,0,1.8,0,2.6,0c1,0.1,1.4-0.2,1.6-1.3c0.5-3,1-6,1.6-9c0.7-4.1,1.5-8.2,2.2-12.3
		C378.3,383.7,378.2,383.6,376.6,383.6z"/>
	<path class="st0" d="M397.7,395.2c-0.2-1.7-1.2-3.1-2.7-4.1c-1.8-1.2-3.9-1.7-6-1.7c-7,0-12,4.9-11.9,11.8c0,2.6,1.1,4.6,3.4,5.8
		c4.3,2.3,8.6,1.9,12.6-0.8C397,403.7,398.3,399.7,397.7,395.2z M388.9,401.2c-0.5,0.9-1.2,1.4-2.2,1.4c-0.8,0-1.4-0.4-1.4-1.3
		c-0.2-1.8,0.3-3.5,1.1-5.1c0.5-0.9,1.4-1.2,2.4-0.9c1.2,0.4,0.9,1.5,1,2.3C389.7,398.9,389.5,400.1,388.9,401.2z"/>
	<path class="st0" d="M273.6,390.4c-1.5-0.7-3.1-1-4.6-1c-6.1,0-10.4,3.2-11.7,8.7c-1.2,5,0.6,8.5,5.2,9.8c0.6,0.2,1.2,0.3,1.9,0.4
		c6.3,0.6,13.3-3,13.3-11.6C277.7,393.8,276.3,391.6,273.6,390.4z M268.7,401.2c-0.6,1.1-1.7,1.6-2.7,1.2c-1.2-0.4-1-1.4-0.9-2.3
		c0.1-1.1,0.4-2.1,0.8-3.1c0.5-1.4,1.5-2,2.6-1.8c1.3,0.3,1.1,1.5,1.2,2.3C269.6,398.9,269.3,400.1,268.7,401.2z"/>
</g>
<text transform="matrix(1 0 0 1 297.9168 426.4254)" class="st0 st1 st2">Alicja Gałan-Koleśnik</text>
</svg>
